<svg width="177" height="49" viewBox="0 0 177 49" fill="none" xmlns="http://www.w3.org/2000/svg">
<path d="M151.116 13.4388C155.133 12.025 159.55 12.2581 163.394 14.0867C167.24 15.9153 170.198 19.1897 171.618 23.1896C173.037 27.1894 172.803 31.587 170.967 35.4149C169.13 39.2429 165.841 42.1877 161.824 43.6015L159.085 35.886C161.047 35.1955 162.653 33.7572 163.55 31.8877C164.447 30.018 164.561 27.8702 163.868 25.9166C163.174 23.963 161.73 22.3638 159.852 21.4707C157.974 20.5775 155.817 20.4637 153.854 21.1542L151.116 13.4388Z" fill="url(#paint0_linear_285_14363)"></path>
<path d="M156.825 26.5684C157.093 28.742 156.91 30.9473 156.288 33.0478C155.665 35.1483 154.616 37.099 153.205 38.7793C151.795 40.4595 150.052 41.8335 148.086 42.816C146.121 43.7985 143.973 44.3686 141.777 44.4911C139.581 44.6135 137.383 44.2856 135.319 43.5278C133.255 42.7699 131.37 41.5982 129.78 40.0853C128.189 38.5723 126.928 36.7503 126.074 34.7322C125.219 32.7141 124.791 30.5428 124.814 28.353L133.033 28.4387C133.021 29.5081 133.231 30.5686 133.648 31.5542C134.065 32.5399 134.681 33.4297 135.458 34.1687C136.235 34.9076 137.155 35.4799 138.164 35.85C139.171 36.2201 140.245 36.3803 141.317 36.3204C142.39 36.2607 143.439 35.9822 144.399 35.5024C145.359 35.0225 146.21 34.3515 146.899 33.5308C147.588 32.7102 148.1 31.7575 148.405 30.7316C148.708 29.7057 148.797 28.6286 148.667 27.5671L156.825 26.5684Z" fill="white"></path>
<path d="M165.201 41.947C163.141 43.2752 160.803 44.1156 158.365 44.404C155.928 44.6923 153.457 44.4208 151.141 43.6102C148.826 42.7997 146.727 41.4718 145.007 39.7283C143.287 37.9848 141.992 35.8723 141.219 33.5526C140.448 31.233 140.219 28.7681 140.553 26.3469C140.886 23.9259 141.773 21.6131 143.143 19.586C144.514 17.559 146.333 15.8716 148.461 14.6534C150.588 13.4353 152.969 12.7187 155.418 12.5586L155.956 20.7244C154.76 20.8026 153.597 21.1526 152.558 21.7476C151.519 22.3425 150.63 23.1666 149.961 24.1567C149.292 25.1466 148.859 26.2762 148.696 27.4587C148.533 28.6411 148.644 29.845 149.021 30.9779C149.399 32.1108 150.032 33.1426 150.872 33.9941C151.712 34.8457 152.736 35.4942 153.868 35.8901C154.998 36.2859 156.205 36.4186 157.395 36.2777C158.586 36.1369 159.728 35.7264 160.734 35.0777L165.201 41.947Z" fill="url(#paint1_linear_285_14363)"></path>
<path d="M124.813 28.5202C124.813 24.4129 126.4 20.4631 129.245 17.4889C132.09 14.5146 135.975 12.7439 140.095 12.5435C144.216 12.3431 148.255 13.7284 151.378 16.4124C154.5 19.0963 156.467 22.8734 156.868 26.9611L148.688 27.7587C148.492 25.7623 147.532 23.9175 146.007 22.6067C144.482 21.2959 142.509 20.6192 140.496 20.7171C138.484 20.815 136.586 21.6799 135.197 23.1325C133.808 24.5851 133.033 26.5142 133.033 28.5202H124.813Z" fill="white"></path>
<path d="M73.4282 42.9692V43.7259H74.1878H77.0885C79.1499 43.7259 80.6937 42.1886 80.6937 40.1362V27.7146C80.6937 25.997 81.312 24.0465 82.4558 22.5387C83.5901 21.0432 85.2014 20.0268 87.2113 20.0268C88.9291 20.0268 90.27 20.6428 91.1913 21.7055C92.1241 22.7806 92.6894 24.3866 92.6894 26.4615V40.1362C92.6894 42.1886 94.2333 43.7259 96.2947 43.7259H99.1954H99.955V42.9692V27.5512C99.955 22.9747 102.82 20.0268 106.418 20.0268C108.258 20.0268 109.64 20.6516 110.57 21.6932C111.51 22.7463 112.06 24.307 112.06 26.2981V40.1362C112.06 42.1886 113.605 43.7259 115.666 43.7259H118.566H119.326V42.9692V25.4809C119.326 21.9006 118.254 18.8486 116.308 16.6817C114.353 14.507 111.569 13.2832 108.279 13.2832C103.26 13.2832 100.128 15.9017 98.1118 18.2887C96.2034 15.1974 92.8844 13.2832 88.9624 13.2832C85.2963 13.2832 82.5833 14.9339 80.6553 16.8097C80.4045 15.0406 78.96 13.7735 77.0885 13.7735H74.1878H73.4282V14.5302V42.9692Z" fill="white" stroke="white"></path>
<path d="M60.8687 13.7742H60.1086V14.5309V40.1369C60.1086 42.1893 61.6528 43.7266 63.7141 43.7266H66.5595H67.3196V42.9699V17.364C67.3196 15.3116 65.7754 13.7742 63.7141 13.7742H60.8687ZM63.7141 3.42285C61.2228 3.42285 59.3973 5.33382 59.3973 7.55739C59.3973 9.87439 61.2072 11.8009 63.7141 11.8009C66.2365 11.8009 67.9762 9.85859 67.9762 7.55739C67.9762 5.27925 66.1505 3.42285 63.7141 3.42285Z" fill="white" stroke="white"></path>
<path d="M46.0258 1.01074H50.4472C52.809 1.01074 54.7236 2.91699 54.7236 5.26847V44.454H50.3022C47.9404 44.454 46.0258 42.5478 46.0258 40.1963V1.01074Z" fill="white"></path>
<path d="M39.4987 11.2413L40.2576 10.8781L39.8171 10.1634C36.2867 4.43756 30.5153 0.758789 22.1515 0.758789C9.50806 0.758789 0.762054 10.2173 0.762054 22.2182C0.762054 34.2192 9.50806 43.6777 22.1515 43.6777C26.822 43.6777 30.436 42.758 33.3065 41.0962C36.1782 39.4338 38.247 37.0626 39.8815 34.2568L40.3039 33.5318L39.5365 33.1873L36.7479 31.9352C36.7476 31.935 36.7473 31.9349 36.747 31.9347C35.7354 31.4771 34.8367 31.3492 33.9893 31.5467C33.1608 31.7398 32.4845 32.2214 31.8741 32.7712L31.857 32.7866L31.8408 32.8032C30.644 34.0212 29.4451 35.0015 27.9787 35.6841C26.5161 36.3649 24.7414 36.7706 22.3704 36.7706C18.0097 36.7706 14.58 35.1132 12.2329 32.4947C9.87692 29.8663 8.57494 26.2262 8.57494 22.2182C8.57494 18.2082 9.8646 14.5664 12.1884 11.9378C14.5031 9.31967 17.8775 7.66586 22.1515 7.66586C26.3685 7.66586 29.4621 9.21063 31.8467 11.5848L31.8594 11.5975L31.8728 11.6096C32.4876 12.166 33.1556 12.6905 33.9531 12.926C34.793 13.1741 35.673 13.0754 36.6539 12.6031C36.6542 12.6029 36.6546 12.6027 36.6549 12.6025L39.4987 11.2413Z" fill="white" stroke="white"></path>
<defs>
<linearGradient id="paint0_linear_285_14363" x1="150.665" y1="43.2138" x2="167.908" y2="13.0806" gradientUnits="userSpaceOnUse">
<stop offset="0.442719" stop-color="#9354E0"></stop>
<stop offset="0.78484" stop-color="white"></stop>
</linearGradient>
<linearGradient id="paint1_linear_285_14363" x1="143.136" y1="37.1093" x2="163.343" y2="17.3018" gradientUnits="userSpaceOnUse">
<stop offset="0.0364583" stop-color="#5CE1E6"></stop>
<stop offset="0.46844" stop-color="#9354E0"></stop>
<stop offset="0.895616" stop-color="white"></stop>
</linearGradient>
</defs>
</svg>